<svg width="28" height="29" viewBox="0 0 28 29" fill="none" xmlns="http://www.w3.org/2000/svg">
<path d="M1.9375 3.8352C1.98549 3.69655 2.07924 3.57836 2.20333 3.50007C2.32742 3.42178 2.47446 3.38805 2.62027 3.40443C3.57012 3.40443 4.51996 3.40443 5.46981 3.40443C5.90058 3.40443 6.05781 3.53582 6.13965 3.94289C6.31842 4.80443 6.48858 5.66597 6.6695 6.55551H6.96458C13.0987 6.55551 19.2322 6.55551 25.3649 6.55551C25.5044 6.54923 25.6438 6.57197 25.7741 6.62228C25.8823 6.66922 25.9704 6.75291 26.0228 6.85855C26.0752 6.96419 26.0886 7.08496 26.0606 7.19951C25.8969 8.50043 25.7325 9.80064 25.5673 11.1001C25.4553 11.9875 25.352 12.8749 25.227 13.7623C25.0375 15.0847 23.883 16.0066 22.5046 16.0023C17.9815 15.9851 13.4433 16.0023 8.91381 16.0023H8.55842C8.63596 16.39 8.68981 16.7604 8.78673 17.118C9.1335 18.4103 10.1178 19.1512 11.4661 19.1512H23.2218C23.3389 19.1482 23.4559 19.1583 23.5707 19.1814C23.6869 19.2075 23.7897 19.275 23.8598 19.3713C23.93 19.4676 23.9627 19.5861 23.952 19.7047C23.948 19.8224 23.9026 19.9349 23.8238 20.0224C23.745 20.1099 23.6378 20.1667 23.5212 20.1829C23.4283 20.1937 23.3347 20.198 23.2412 20.1958H11.5006C9.49535 20.1958 8.07381 18.994 7.68396 17.0211C6.86837 12.9029 6.04776 8.78833 5.22212 4.67736C5.20717 4.60464 5.18848 4.53275 5.16612 4.46197H4.92273C4.16027 4.46197 3.39781 4.46197 2.6375 4.46197C2.49406 4.48166 2.34812 4.45405 2.22179 4.3833C2.09547 4.31256 1.99566 4.20256 1.9375 4.06997V3.8352ZM24.9406 7.63028H6.87842C7.3695 10.0814 7.85627 12.5152 8.34519 14.9534H22.4917C23.4975 14.9534 24.1092 14.3783 24.2147 13.3789C24.3849 11.9207 24.5766 10.4669 24.7597 9.0109C24.8264 8.55643 24.8824 8.09767 24.9406 7.63028Z" fill="black"/>
<path d="M8.23634 23.8828C8.23464 23.3643 8.38676 22.8569 8.67346 22.4248C8.96016 21.9928 9.36856 21.6555 9.847 21.4556C10.3254 21.2557 10.8524 21.2021 11.3613 21.3018C11.8701 21.4014 12.338 21.6498 12.7057 22.0153C13.0734 22.3809 13.3244 22.8474 13.427 23.3557C13.5296 23.8639 13.4791 24.3912 13.2819 24.8708C13.0848 25.3504 12.7498 25.7607 12.3194 26.0499C11.889 26.3391 11.3826 26.4941 10.864 26.4954C10.5198 26.4971 10.1785 26.4308 9.85993 26.3003C9.54134 26.1698 9.25166 25.9776 9.00752 25.7349C8.76337 25.4921 8.56957 25.2036 8.43723 24.8857C8.30489 24.5679 8.23662 24.2271 8.23634 23.8828V23.8828ZM10.849 22.3018C10.5386 22.3027 10.2354 22.3955 9.9778 22.5686C9.72016 22.7416 9.51958 22.9871 9.4014 23.2741C9.28322 23.5611 9.25274 23.8767 9.31381 24.181C9.37488 24.4853 9.52476 24.7646 9.74452 24.9838C9.96428 25.2029 10.2441 25.3521 10.5485 25.4123C10.853 25.4725 11.1685 25.4412 11.4551 25.3222C11.7418 25.2033 11.9868 25.002 12.1591 24.7439C12.3314 24.4858 12.4234 24.1824 12.4234 23.872C12.4217 23.4554 12.2551 23.0563 11.9601 22.7621C11.6651 22.4679 11.2656 22.3024 10.849 22.3018V22.3018Z" fill="black"/>
<path d="M21.3335 21.2529C21.852 21.2517 22.3591 21.4041 22.7909 21.6911C23.2227 21.9781 23.5596 22.3866 23.7592 22.8651C23.9588 23.3436 24.012 23.8705 23.9121 24.3792C23.8122 24.8879 23.5637 25.3556 23.1981 25.7231C22.8324 26.0906 22.3659 26.3414 21.8577 26.4438C21.3495 26.5461 20.8223 26.4955 20.3429 26.2983C19.8634 26.1011 19.4532 25.7662 19.1641 25.3358C18.875 24.9055 18.7201 24.3991 18.7188 23.8806C18.7171 23.5362 18.7835 23.1948 18.9141 22.876C19.0447 22.5573 19.2371 22.2675 19.48 22.0233C19.723 21.7792 20.0118 21.5854 20.3299 21.4532C20.648 21.321 20.9891 21.2529 21.3335 21.2529V21.2529ZM22.9102 23.8699C22.9097 23.5595 22.8173 23.2562 22.6446 22.9983C22.472 22.7405 22.2267 22.5395 21.9399 22.421C21.6531 22.3024 21.3375 22.2715 21.0332 22.3321C20.7288 22.3928 20.4492 22.5423 20.2297 22.7617C20.0103 22.9812 19.8608 23.2608 19.8001 23.5652C19.7395 23.8695 19.7704 24.1851 19.889 24.4719C20.0075 24.7587 20.2085 25.004 20.4663 25.1767C20.7242 25.3493 21.0275 25.4417 21.3379 25.4422C21.7549 25.4422 22.1548 25.2765 22.4496 24.9817C22.7445 24.6868 22.9102 24.2869 22.9102 23.8699V23.8699Z" fill="black"/>
<path d="M1.9375 3.8352C1.98549 3.69655 2.07924 3.57836 2.20333 3.50007C2.32742 3.42178 2.47446 3.38805 2.62027 3.40443C3.57012 3.40443 4.51996 3.40443 5.46981 3.40443C5.90058 3.40443 6.05781 3.53582 6.13965 3.94289C6.31842 4.80443 6.48858 5.66597 6.6695 6.55551H6.96458C13.0987 6.55551 19.2322 6.55551 25.3649 6.55551C25.5044 6.54923 25.6438 6.57197 25.7741 6.62228C25.8823 6.66922 25.9704 6.75291 26.0228 6.85855C26.0752 6.96419 26.0886 7.08496 26.0606 7.19951C25.8969 8.50043 25.7325 9.80064 25.5673 11.1001C25.4553 11.9875 25.352 12.8749 25.227 13.7623C25.0375 15.0847 23.883 16.0066 22.5046 16.0023C17.9815 15.9851 13.4433 16.0023 8.91381 16.0023H8.55842C8.63596 16.39 8.68981 16.7604 8.78673 17.118C9.1335 18.4103 10.1178 19.1512 11.4661 19.1512H23.2218C23.3389 19.1482 23.4559 19.1583 23.5707 19.1814C23.6869 19.2075 23.7897 19.275 23.8598 19.3713C23.93 19.4676 23.9627 19.5861 23.952 19.7047C23.948 19.8224 23.9026 19.9349 23.8238 20.0224C23.745 20.1099 23.6378 20.1667 23.5212 20.1829C23.4283 20.1937 23.3347 20.198 23.2412 20.1958H11.5006C9.49535 20.1958 8.07381 18.994 7.68396 17.0211C6.86837 12.9029 6.04776 8.78833 5.22212 4.67736C5.20717 4.60464 5.18848 4.53275 5.16612 4.46197H4.92273C4.16027 4.46197 3.39781 4.46197 2.6375 4.46197C2.49406 4.48166 2.34812 4.45405 2.22179 4.3833C2.09547 4.31256 1.99566 4.20256 1.9375 4.06997V3.8352ZM24.9406 7.63028H6.87842C7.3695 10.0814 7.85627 12.5152 8.34519 14.9534H22.4917C23.4975 14.9534 24.1092 14.3783 24.2147 13.3789C24.3849 11.9207 24.5766 10.4669 24.7597 9.0109C24.8264 8.55643 24.8824 8.09767 24.9406 7.63028Z" fill="#E2B013"/>
<path d="M8.23634 23.8828C8.23464 23.3643 8.38676 22.8569 8.67346 22.4248C8.96016 21.9928 9.36856 21.6555 9.847 21.4556C10.3254 21.2557 10.8524 21.2021 11.3613 21.3018C11.8701 21.4014 12.338 21.6498 12.7057 22.0153C13.0734 22.3809 13.3244 22.8474 13.427 23.3557C13.5296 23.8639 13.4791 24.3912 13.2819 24.8708C13.0848 25.3504 12.7498 25.7607 12.3194 26.0499C11.889 26.3391 11.3826 26.4941 10.864 26.4954C10.5198 26.4971 10.1785 26.4308 9.85993 26.3003C9.54134 26.1698 9.25166 25.9776 9.00752 25.7349C8.76337 25.4921 8.56957 25.2036 8.43723 24.8857C8.30489 24.5679 8.23662 24.2271 8.23634 23.8828V23.8828ZM10.849 22.3018C10.5386 22.3027 10.2354 22.3955 9.9778 22.5686C9.72016 22.7416 9.51958 22.9871 9.4014 23.2741C9.28322 23.5611 9.25274 23.8767 9.31381 24.181C9.37488 24.4853 9.52476 24.7646 9.74452 24.9838C9.96428 25.2029 10.2441 25.3521 10.5485 25.4123C10.853 25.4725 11.1685 25.4412 11.4551 25.3222C11.7418 25.2033 11.9868 25.002 12.1591 24.7439C12.3314 24.4858 12.4234 24.1824 12.4234 23.872C12.4217 23.4554 12.2551 23.0563 11.9601 22.7621C11.6651 22.4679 11.2656 22.3024 10.849 22.3018V22.3018Z" fill="#E2B013"/>
<path d="M21.3335 21.2529C21.852 21.2517 22.3591 21.4041 22.7909 21.6911C23.2227 21.9781 23.5596 22.3866 23.7592 22.8651C23.9588 23.3436 24.012 23.8705 23.9121 24.3792C23.8122 24.8879 23.5637 25.3556 23.1981 25.7231C22.8324 26.0906 22.3659 26.3414 21.8577 26.4438C21.3495 26.5461 20.8223 26.4955 20.3429 26.2983C19.8634 26.1011 19.4532 25.7662 19.1641 25.3358C18.875 24.9055 18.7201 24.3991 18.7188 23.8806C18.7171 23.5362 18.7835 23.1948 18.9141 22.876C19.0447 22.5573 19.2371 22.2675 19.48 22.0233C19.723 21.7792 20.0118 21.5854 20.3299 21.4532C20.648 21.321 20.9891 21.2529 21.3335 21.2529V21.2529ZM22.9102 23.8699C22.9097 23.5595 22.8173 23.2562 22.6446 22.9983C22.472 22.7405 22.2267 22.5395 21.9399 22.421C21.6531 22.3024 21.3375 22.2715 21.0332 22.3321C20.7288 22.3928 20.4492 22.5423 20.2297 22.7617C20.0103 22.9812 19.8608 23.2608 19.8001 23.5652C19.7395 23.8695 19.7704 24.1851 19.889 24.4719C20.0075 24.7587 20.2085 25.004 20.4663 25.1767C20.7242 25.3493 21.0275 25.4417 21.3379 25.4422C21.7549 25.4422 22.1548 25.2765 22.4496 24.9817C22.7445 24.6868 22.9102 24.2869 22.9102 23.8699V23.8699Z" fill="#E2B013"/>
</svg>
