<svg width="60" height="60" viewBox="0 0 60 60" fill="none" xmlns="http://www.w3.org/2000/svg">
<path d="M30.0733 46.994C26.969 46.9927 23.9238 46.1452 21.2652 44.5426C18.6066 42.9401 16.435 40.6432 14.9841 37.8989C13.5331 35.1546 12.8577 32.0667 13.0303 28.9673C13.203 25.8678 14.2173 22.8741 15.964 20.3079C16.0071 20.2455 16.062 20.1921 16.1256 20.1509C16.1893 20.1097 16.2604 20.0814 16.335 20.0677C16.4096 20.054 16.4861 20.0551 16.5602 20.071C16.6344 20.0868 16.7047 20.1172 16.7671 20.1602C16.8295 20.2032 16.8829 20.2581 16.9241 20.3218C16.9653 20.3854 16.9936 20.4566 17.0073 20.5311C17.021 20.6057 17.0199 20.6823 17.004 20.7564C16.9882 20.8305 16.9578 20.9008 16.9148 20.9633C14.9451 23.8169 13.9643 27.2372 14.1225 30.701C14.2807 34.1648 15.5692 37.4815 17.7908 40.1437C20.0124 42.8059 23.0449 44.6672 26.4245 45.4428C29.8041 46.2183 33.3447 45.8656 36.5048 44.4384C39.6649 43.0112 42.2705 40.5882 43.9231 37.54C45.5758 34.4917 46.1845 30.986 45.6561 27.5591C45.1277 24.1322 43.4913 20.9726 40.9973 18.5638C38.5032 16.1549 35.2888 14.6292 31.8456 14.2202V31.5187C31.8456 31.6717 31.7848 31.8184 31.6766 31.9266C31.5684 32.0348 31.4217 32.0956 31.2687 32.0956H20.3071C20.1517 32.0956 20.0026 32.0338 19.8926 31.9239C19.7827 31.814 19.721 31.6649 19.721 31.5094C19.721 31.354 19.7827 31.2049 19.8926 31.0949C20.0026 30.985 20.1517 30.9233 20.3071 30.9233H30.6871V13.5833C30.6875 13.5032 30.7045 13.4242 30.7371 13.3511C30.7696 13.278 30.8171 13.2124 30.8763 13.1587C30.9334 13.1034 31.0017 13.0612 31.0766 13.0349C31.1515 13.0086 31.2312 12.9989 31.3102 13.0063C34.5524 13.2687 37.6522 14.4517 40.245 16.4159C42.8377 18.3802 44.8155 21.0442 45.9457 24.0943C47.0759 27.1445 47.3114 30.454 46.6245 33.6334C45.9377 36.8129 44.3571 39.7301 42.0687 42.0417C40.4941 43.6168 38.6238 44.8652 36.5652 45.7151C34.5066 46.5649 32.3004 46.9996 30.0733 46.994Z" fill="black"/>
</svg>
