<svg width="60" height="60" viewBox="0 0 60 60" fill="none" xmlns="http://www.w3.org/2000/svg">
<path d="M44.6208 41.6584H15.3777C15.3016 41.6584 15.2262 41.6433 15.1559 41.614C15.0856 41.5848 15.0218 41.5419 14.9681 41.4878C14.9145 41.4337 14.8721 41.3696 14.8434 41.2991C14.8147 41.2285 14.8002 41.153 14.8008 41.0769V30.8492C14.8008 30.6962 14.8616 30.5494 14.9698 30.4412C15.078 30.333 15.2247 30.2722 15.3777 30.2722H22.827C22.98 30.2722 23.1267 30.333 23.2349 30.4412C23.3431 30.5494 23.4039 30.6962 23.4039 30.8492C23.4039 31.0022 23.3431 31.1489 23.2349 31.2571C23.1267 31.3653 22.98 31.4261 22.827 31.4261H15.9546V40.5046H44.0439V11.8892H15.9546V20.1969C15.9546 20.3499 15.8939 20.4966 15.7857 20.6048C15.6775 20.713 15.5307 20.7738 15.3777 20.7738C15.2247 20.7738 15.078 20.713 14.9698 20.6048C14.8616 20.4966 14.8008 20.3499 14.8008 20.1969V11.303C14.8002 11.2271 14.8147 11.1518 14.8435 11.0815C14.8722 11.0112 14.9147 10.9474 14.9684 10.8937C15.0221 10.84 15.0859 10.7975 15.1562 10.7688C15.2265 10.74 15.3018 10.7255 15.3777 10.7261H44.6208C44.6967 10.7255 44.772 10.74 44.8423 10.7688C44.9126 10.7975 44.9764 10.84 45.0301 10.8937C45.0838 10.9474 45.1263 11.0112 45.1551 11.0815C45.1838 11.1518 45.1983 11.2271 45.1977 11.303V41.0769C45.1983 41.153 45.1839 41.2285 45.1551 41.2991C45.1264 41.3696 45.084 41.4337 45.0304 41.4878C44.9768 41.5419 44.9129 41.5848 44.8426 41.614C44.7724 41.6433 44.697 41.6584 44.6208 41.6584Z" fill="black"/>
<path d="M30.0008 49.274C29.9248 49.2746 29.8495 49.2601 29.7793 49.2313C29.709 49.2025 29.6451 49.1601 29.5915 49.1064C29.5378 49.0527 29.4953 48.9888 29.4665 48.9186C29.4377 48.8483 29.4232 48.773 29.4238 48.6971V18.7986C29.4238 18.6456 29.4846 18.4989 29.5928 18.3907C29.701 18.2825 29.8478 18.2217 30.0008 18.2217C30.1538 18.2217 30.3005 18.2825 30.4087 18.3907C30.5169 18.4989 30.5777 18.6456 30.5777 18.7986V48.6971C30.5783 48.773 30.5638 48.8483 30.535 48.9186C30.5063 48.9888 30.4638 49.0527 30.4101 49.1064C30.3564 49.1601 30.2925 49.2025 30.2223 49.2313C30.152 49.2601 30.0767 49.2746 30.0008 49.274Z" fill="black"/>
</svg>
