<svg width="137" height="74" viewBox="0 0 137 74" fill="none" xmlns="http://www.w3.org/2000/svg">
<path d="M35.252 16.2202L25.6379 35.1682H36.7061V47.4482H6.5621L16.1 28.4362H6.18555V16.2202H35.252Z" fill="black"/>
<path d="M71.7047 33.7279H46.3156C46.0615 32.928 45.9265 32.0951 45.915 31.2559C45.9122 30.207 46.0995 29.1663 46.4678 28.1839H60.0356C59.619 25.8693 58.3131 24.7106 56.1179 24.7079C55.4138 24.6994 54.7186 24.8652 54.0944 25.1905C53.4702 25.5157 52.9364 25.9904 52.5407 26.5719C51.6193 27.8146 51.16 29.4066 51.1627 31.3479C51.1627 33.3759 51.6033 35.0119 52.4926 36.2679C52.8689 36.8506 53.3871 37.3284 53.9988 37.6565C54.6104 37.9846 55.2954 38.1523 55.9897 38.1439C57.1648 38.1439 58.2944 37.5599 59.3787 36.3919L66.0604 44.3919C63.128 46.7749 59.462 48.0747 55.6813 48.0719C51.0372 48.0719 47.1381 46.5173 43.9842 43.4079C40.8303 40.2986 39.2546 36.4466 39.2573 31.8519C39.2124 29.6938 39.6141 27.5498 40.4371 25.5538C41.2601 23.5578 42.4867 21.7529 44.0403 20.2519C47.2289 17.0999 51.1453 15.5239 55.7894 15.5239C60.3294 15.5239 64.1403 17.0639 67.2221 20.1439C70.3039 23.2239 71.8462 27.0186 71.8489 31.5279C71.8369 31.9999 71.7928 32.7279 71.7047 33.7279Z" fill="black"/>
<path d="M93.7373 15.9082V28.4362C93.0662 28.0201 92.2993 27.7832 91.5101 27.7482C89.3736 27.7482 88.3054 29.3762 88.3054 32.6322V67.4642H76.5723V30.4002C76.5723 25.8882 77.8061 22.2882 80.2737 19.6002C82.7413 16.9122 86.0341 15.5709 90.1521 15.5762C91.3538 15.5981 92.5521 15.7091 93.7373 15.9082Z" fill="black"/>
<path d="M130.991 20.1882C131.026 22.3365 130.618 24.4689 129.791 26.4523C128.964 28.4358 127.736 30.2277 126.184 31.7162C123.087 34.7711 118.909 36.4842 114.555 36.4842C110.202 36.4842 106.024 34.7711 102.926 31.7162C101.371 30.2328 100.139 28.4446 99.3074 26.4637C98.4761 24.4828 98.0634 22.3518 98.0952 20.2042C98.05 18.0506 98.4564 15.9114 99.2884 13.924C100.12 11.9366 101.36 10.145 102.926 8.66421C106.147 5.54421 110.121 3.98288 114.848 3.98021C116.974 3.95373 119.084 4.36402 121.045 5.1856C123.006 6.00719 124.777 7.22254 126.248 8.75621C127.775 10.2404 128.982 12.0194 129.798 13.9849C130.613 15.9503 131.019 18.061 130.991 20.1882Z" fill="black"/>
<path d="M8.41144 54.916V64.996H7.18164V54.916H8.41144ZM7.86263 64.996V63.772H10.2141C10.7451 63.7779 11.2729 63.6885 11.7723 63.508C12.2216 63.3392 12.6308 63.0791 12.9741 62.744C13.3167 62.4046 13.5818 61.9953 13.7512 61.544C14.1197 60.5201 14.1197 59.4 13.7512 58.376C13.5814 57.925 13.3163 57.5157 12.9741 57.176C12.6319 56.8396 12.2224 56.5792 11.7723 56.412C11.2732 56.2302 10.7454 56.1394 10.2141 56.144H7.85863V54.92H10.2101C11.1195 54.9011 12.0183 55.1189 12.8179 55.552C13.5681 55.9614 14.1884 56.5725 14.6085 57.316C15.035 58.1316 15.2577 59.038 15.2577 59.958C15.2577 60.8781 15.035 61.7845 14.6085 62.6C14.1862 63.3419 13.5664 63.9524 12.8179 64.364C12.0183 64.7972 11.1195 65.015 10.2101 64.996H7.86263Z" fill="black"/>
<path d="M21.2711 54.916V64.996H20.0293V54.916H21.2711ZM20.7223 54.916H25.8137V56.068H20.7223V54.916ZM20.7223 58.948H25.5293V60.1H20.7223V58.948ZM20.7223 63.844H25.8137V64.996H20.7223V63.844Z" fill="black"/>
<path d="M32.1398 63.0119C32.3781 63.3032 32.6689 63.5473 32.997 63.732C33.33 63.9074 33.7022 63.9954 34.0786 63.988C34.5521 64.0102 35.0162 63.8514 35.3765 63.544C35.536 63.3999 35.6623 63.2231 35.7467 63.0255C35.8311 62.828 35.8715 62.6146 35.8652 62.3999C35.8849 62.0146 35.7734 61.6339 35.5488 61.32C35.3247 61.0434 35.0413 60.8206 34.7196 60.6679C34.3721 60.4967 34.015 60.3458 33.65 60.2159C33.4016 60.1319 33.1212 60.0159 32.8128 59.8799C32.5006 59.7358 32.2062 59.5559 31.9355 59.3439C31.6544 59.1272 31.4212 58.8549 31.2505 58.5439C31.0612 58.1844 30.9687 57.7819 30.9821 57.3759C30.9744 56.9022 31.1053 56.4365 31.3586 56.0359C31.6134 55.638 31.9721 55.3171 32.3962 55.108C32.8666 54.8758 33.3857 54.7592 33.9104 54.7679C34.4065 54.7563 34.8982 54.8633 35.3445 55.0799C35.7413 55.2769 36.0963 55.5485 36.39 55.8799C36.6671 56.1815 36.8955 56.5243 37.067 56.896L36.0174 57.4999C35.8843 57.2389 35.7246 56.9923 35.5408 56.764C35.3485 56.5234 35.1102 56.3235 34.8397 56.1759C34.5318 56.0129 34.1866 55.933 33.8383 55.9439C33.6212 55.9256 33.4027 55.9516 33.1961 56.0203C32.9895 56.0891 32.7991 56.1992 32.6365 56.3439C32.4008 56.5783 32.267 56.8959 32.264 57.228C32.2524 57.4974 32.3162 57.7647 32.4482 57.9999C32.6343 58.2751 32.8827 58.5026 33.1733 58.664C33.6168 58.913 34.0837 59.1179 34.5673 59.276C34.8582 59.3815 35.1419 59.5057 35.4166 59.6479C35.7185 59.8037 35.9975 60.0002 36.2458 60.232C36.5055 60.474 36.7186 60.7613 36.8747 61.0799C37.0486 61.4555 37.1323 61.8664 37.1191 62.2799C37.1261 62.6938 37.0399 63.1039 36.8667 63.4799C36.7037 63.8288 36.4673 64.1385 36.1737 64.3879C35.8791 64.6369 35.5428 64.8319 35.1802 64.964C34.7453 65.1184 34.2838 65.1845 33.8229 65.1584C33.362 65.1323 32.911 65.0145 32.4963 64.8119C32.0337 64.5776 31.6182 64.2603 31.2705 63.876C30.9398 63.4921 30.6623 63.0656 30.4453 62.608L31.4267 61.9439C31.6321 62.3204 31.8707 62.6779 32.1398 63.0119Z" fill="black"/>
<path d="M43.2199 54.916V64.996H41.9941V54.916H43.2199Z" fill="black"/>
<path d="M53.2774 59.884H57.9643C57.9694 60.5635 57.8625 61.2392 57.6478 61.884C57.4443 62.4969 57.1262 63.0656 56.7104 63.56C56.2943 64.0534 55.7746 64.4495 55.1882 64.72C54.5435 65.0127 53.8413 65.1575 53.1332 65.144C52.4378 65.1518 51.7477 65.0226 51.1022 64.764C50.4888 64.5179 49.9324 64.1488 49.4674 63.6796C49.0023 63.2104 48.6385 62.6511 48.3983 62.036C47.8855 60.7008 47.8855 59.2233 48.3983 57.888C48.6408 57.2718 49.006 56.7112 49.4719 56.24C49.9345 55.7712 50.4897 55.4034 51.1022 55.16C51.7463 54.8947 52.4365 54.7588 53.1332 54.76C53.7167 54.7544 54.2976 54.8381 54.8557 55.008C55.3668 55.1606 55.846 55.4045 56.2698 55.728C56.6978 56.056 57.0582 56.4635 57.3313 56.928L56.4661 57.728C56.1521 57.1915 55.6924 56.7546 55.1401 56.468C54.5207 56.1526 53.8324 55.9959 53.1372 56.012C52.466 56.0022 51.8045 56.1731 51.2223 56.5067C50.6401 56.8404 50.1586 57.3244 49.8284 57.908C49.491 58.5431 49.3146 59.2511 49.3146 59.97C49.3146 60.689 49.491 61.3969 49.8284 62.032C50.1574 62.617 50.6385 63.1023 51.2209 63.4367C51.8034 63.7712 52.4654 63.9423 53.1372 63.932C53.5967 63.9394 54.0539 63.8649 54.4872 63.712C54.8677 63.5709 55.2173 63.3577 55.5167 63.084C55.8037 62.8189 56.0447 62.508 56.2297 62.164C56.4143 61.8137 56.5491 61.4395 56.6303 61.052H53.2774V59.884Z" fill="black"/>
<path d="M71.705 54.9159V65.4999L64.0618 57.4999V64.9999H62.832V54.3999L70.4792 62.3999V54.9159H71.705Z" fill="black"/>
</svg>
