<svg width="60" height="60" viewBox="0 0 60 60" fill="none" xmlns="http://www.w3.org/2000/svg">
<path d="M18.0005 42.8677C14.5878 42.8677 11.3148 41.512 8.90167 39.0988C6.48851 36.6857 5.13281 33.4127 5.13281 30C5.13281 26.5873 6.48851 23.3143 8.90167 20.9012C11.3148 18.488 14.5878 17.1323 18.0005 17.1323C24.9236 17.1323 38.7697 29.0585 39.342 29.5662C39.4045 29.6199 39.4546 29.6865 39.489 29.7613C39.5233 29.8362 39.5411 29.9176 39.5411 30C39.5411 30.0824 39.5233 30.1638 39.489 30.2387C39.4546 30.3136 39.4045 30.3801 39.342 30.4339C38.7697 30.9231 24.9236 42.8677 18.0005 42.8677ZM18.0005 18.2862C14.8938 18.2862 11.9143 19.5203 9.71756 21.7171C7.52079 23.9138 6.28666 26.8933 6.28666 30C6.28666 33.1067 7.52079 36.0862 9.71756 38.283C11.9143 40.4797 14.8938 41.7139 18.0005 41.7139C23.7836 41.7139 35.4836 32.1739 38.0728 30C35.4743 27.8262 23.7743 18.2862 18.0005 18.2862Z" fill="black"/>
<path d="M41.9997 42.8675C35.0766 42.8675 21.2305 30.9413 20.6581 30.4336C20.5955 30.3857 20.5433 30.3254 20.5048 30.2566C20.4664 30.1877 20.4424 30.1116 20.4345 30.0331C20.4266 29.9546 20.4349 29.8753 20.4589 29.8002C20.4828 29.725 20.5219 29.6555 20.5738 29.5961C20.6257 29.5366 20.6892 29.4884 20.7604 29.4545C20.8316 29.4206 20.9091 29.4016 20.9879 29.3988C21.0668 29.396 21.1453 29.4093 21.2188 29.4381C21.2923 29.4668 21.3591 29.5104 21.4151 29.5659C21.5535 29.6859 35.5058 41.7136 41.9997 41.7136C45.1064 41.7136 48.0859 40.4795 50.2826 38.2827C52.4794 36.086 53.7135 33.1065 53.7135 29.9998C53.7135 26.8931 52.4794 23.9136 50.2826 21.7169C48.0859 19.5201 45.1064 18.2859 41.9997 18.2859C39.512 18.2859 35.4735 20.1321 30.3135 23.6306C30.1895 23.7097 30.0397 23.7381 29.8953 23.7097C29.7509 23.6813 29.623 23.5985 29.5381 23.4783C29.4953 23.4156 29.4652 23.345 29.4497 23.2707C29.4341 23.1964 29.4334 23.1197 29.4475 23.0451C29.4617 22.9705 29.4904 22.8994 29.5321 22.8359C29.5738 22.7724 29.6276 22.7178 29.6905 22.6752C35.1181 18.9829 39.2674 17.1367 42.0228 17.1367C43.7126 17.1367 45.3858 17.4696 46.947 18.1162C48.5082 18.7629 49.9267 19.7107 51.1216 20.9056C52.3165 22.1005 53.2643 23.519 53.911 25.0802C54.5576 26.6413 54.8905 28.3146 54.8905 30.0044C54.8905 31.6942 54.5576 33.3675 53.911 34.9287C53.2643 36.4898 52.3165 37.9084 51.1216 39.1032C49.9267 40.2981 48.5082 41.2459 46.947 41.8926C45.3858 42.5393 43.7126 42.8721 42.0228 42.8721L41.9997 42.8675Z" fill="black"/>
</svg>
