<svg width="28" height="28" viewBox="0 0 28 28" fill="none" xmlns="http://www.w3.org/2000/svg">
<path d="M20.5178 18.8288C21.9312 16.9883 22.5915 14.6791 22.3646 12.3696C22.1378 10.0601 21.0409 7.92342 19.2965 6.39303C17.5521 4.86264 15.2908 4.05318 12.9715 4.12889C10.6521 4.2046 8.44845 5.15981 6.80755 6.80071C5.16665 8.44161 4.21144 10.6453 4.13573 12.9646C4.06002 15.284 4.86948 17.5453 6.39987 19.2897C7.93026 21.0341 10.067 22.131 12.3764 22.3578C14.6859 22.5846 16.9952 21.9244 18.8357 20.511L22.032 23.7418C22.1122 23.8188 22.2191 23.8618 22.3303 23.8618C22.4415 23.8618 22.5484 23.8188 22.6286 23.7418L23.74 22.6304C23.8176 22.5501 23.861 22.4427 23.861 22.331C23.861 22.2193 23.8176 22.1119 23.74 22.0316L20.5178 18.8288ZM13.3412 21.0258C12.1798 21.025 11.0335 20.7627 9.98728 20.2584C8.94107 19.7541 8.02182 19.0208 7.29771 18.1128C6.57361 17.2047 6.06322 16.1453 5.80443 15.0131C5.54563 13.8809 5.54506 12.705 5.80275 11.5725C6.36706 8.95991 9.00121 6.32576 11.6181 5.75714C12.7506 5.49945 13.9265 5.50002 15.0587 5.75882C16.1909 6.01762 17.2503 6.528 18.1584 7.25211C19.0664 7.97622 19.7997 8.89547 20.304 9.94168C20.8083 10.9879 21.0706 12.1342 21.0714 13.2956V13.2956C21.0719 14.3109 20.8724 15.3164 20.4841 16.2545C20.0958 17.1926 19.5264 18.045 18.8085 18.7629C18.0906 19.4808 17.2382 20.0502 16.3001 20.4385C15.362 20.8268 14.3565 21.0263 13.3412 21.0258V21.0258Z" fill="black"/>
<path d="M20.5558 18.8268C21.9678 16.9777 22.6242 14.661 22.3921 12.3459C22.16 10.0309 21.0567 7.89065 19.3056 6.35865C17.5546 4.82665 15.2867 4.01745 12.9613 4.09494C10.636 4.17243 8.42703 5.13082 6.78185 6.77599C5.13668 8.42117 4.17829 10.6301 4.1008 12.9555C4.02331 15.2808 4.83251 17.5487 6.36451 19.2997C7.89651 21.0508 10.0368 22.1541 12.3518 22.3862C14.6668 22.6184 16.9835 21.9619 18.8327 20.5499L22.0312 23.7807C22.1114 23.8577 22.2183 23.9007 22.3295 23.9007C22.4407 23.9007 22.5476 23.8577 22.6278 23.7807L23.7822 22.6262C23.8592 22.546 23.9022 22.4391 23.9022 22.3279C23.9022 22.2167 23.8592 22.1098 23.7822 22.0296L20.5558 18.8268ZM7.71885 20.4853C6.29015 19.3873 5.21911 17.8904 4.64116 16.1837C4.0632 14.477 4.00429 12.6373 4.47187 10.8972C4.93945 9.15702 5.91252 7.5946 7.26805 6.40747C8.62357 5.22033 10.3007 4.4618 12.0873 4.22778C13.8739 3.99377 15.6898 4.29477 17.3053 5.09274C18.9208 5.89071 20.2635 7.14981 21.1635 8.71082C22.0635 10.2718 22.4804 12.0647 22.3614 13.8626C22.2425 15.6605 21.5932 17.3829 20.4955 18.8118L20.4804 18.8311L23.7112 22.0253C23.7888 22.1056 23.8322 22.213 23.8322 22.3247C23.8322 22.4364 23.7888 22.5437 23.7112 22.6241L22.6342 23.701C22.554 23.778 22.4471 23.821 22.3359 23.821C22.2247 23.821 22.1178 23.778 22.0376 23.701L18.8435 20.4702L18.8241 20.4853C17.2309 21.7072 15.2792 22.3695 13.2715 22.3695C11.2637 22.3695 9.31198 21.7072 7.71885 20.4853V20.4853Z" fill="black"/>
<path d="M20.5178 18.8288C21.9312 16.9883 22.5915 14.6791 22.3646 12.3696C22.1378 10.0601 21.0409 7.92342 19.2965 6.39303C17.5521 4.86264 15.2908 4.05318 12.9715 4.12889C10.6521 4.2046 8.44845 5.15981 6.80755 6.80071C5.16665 8.44161 4.21144 10.6453 4.13573 12.9646C4.06002 15.284 4.86948 17.5453 6.39987 19.2897C7.93026 21.0341 10.067 22.131 12.3764 22.3578C14.6859 22.5846 16.9952 21.9244 18.8357 20.511L22.032 23.7418C22.1122 23.8188 22.2191 23.8618 22.3303 23.8618C22.4415 23.8618 22.5484 23.8188 22.6286 23.7418L23.74 22.6304C23.8176 22.5501 23.861 22.4427 23.861 22.331C23.861 22.2193 23.8176 22.1119 23.74 22.0316L20.5178 18.8288ZM13.3412 21.0258C12.1798 21.025 11.0335 20.7627 9.98728 20.2584C8.94107 19.7541 8.02182 19.0208 7.29771 18.1128C6.57361 17.2047 6.06322 16.1453 5.80443 15.0131C5.54563 13.8809 5.54506 12.705 5.80275 11.5725C6.36706 8.95991 9.00121 6.32576 11.6181 5.75714C12.7506 5.49945 13.9265 5.50002 15.0587 5.75882C16.1909 6.01762 17.2503 6.528 18.1584 7.25211C19.0664 7.97622 19.7997 8.89547 20.304 9.94168C20.8083 10.9879 21.0706 12.1342 21.0714 13.2956V13.2956C21.0719 14.3109 20.8724 15.3164 20.4841 16.2545C20.0958 17.1926 19.5264 18.045 18.8085 18.7629C18.0906 19.4808 17.2382 20.0502 16.3001 20.4385C15.362 20.8268 14.3565 21.0263 13.3412 21.0258V21.0258Z" fill="#E2B013"/>
<path d="M20.5558 18.8268C21.9678 16.9777 22.6242 14.661 22.3921 12.3459C22.16 10.0309 21.0567 7.89065 19.3056 6.35865C17.5546 4.82665 15.2867 4.01745 12.9613 4.09494C10.636 4.17243 8.42703 5.13082 6.78185 6.77599C5.13668 8.42117 4.17829 10.6301 4.1008 12.9555C4.02331 15.2808 4.83251 17.5487 6.36451 19.2997C7.89651 21.0508 10.0368 22.1541 12.3518 22.3862C14.6668 22.6184 16.9835 21.9619 18.8327 20.5499L22.0312 23.7807C22.1114 23.8577 22.2183 23.9007 22.3295 23.9007C22.4407 23.9007 22.5476 23.8577 22.6278 23.7807L23.7822 22.6262C23.8592 22.546 23.9022 22.4391 23.9022 22.3279C23.9022 22.2167 23.8592 22.1098 23.7822 22.0296L20.5558 18.8268ZM7.71885 20.4853C6.29015 19.3873 5.21911 17.8904 4.64116 16.1837C4.0632 14.477 4.00429 12.6373 4.47187 10.8972C4.93945 9.15702 5.91252 7.5946 7.26805 6.40747C8.62357 5.22033 10.3007 4.4618 12.0873 4.22778C13.8739 3.99377 15.6898 4.29477 17.3053 5.09274C18.9208 5.89071 20.2635 7.14981 21.1635 8.71082C22.0635 10.2718 22.4804 12.0647 22.3614 13.8626C22.2425 15.6605 21.5932 17.3829 20.4955 18.8118L20.4804 18.8311L23.7112 22.0253C23.7888 22.1056 23.8322 22.213 23.8322 22.3247C23.8322 22.4364 23.7888 22.5437 23.7112 22.6241L22.6342 23.701C22.554 23.778 22.4471 23.821 22.3359 23.821C22.2247 23.821 22.1178 23.778 22.0376 23.701L18.8435 20.4702L18.8241 20.4853C17.2309 21.7072 15.2792 22.3695 13.2715 22.3695C11.2637 22.3695 9.31198 21.7072 7.71885 20.4853V20.4853Z" fill="#E2B013"/>
</svg>
