<svg width="60" height="60" viewBox="0 0 60 60" fill="none" xmlns="http://www.w3.org/2000/svg">
<path d="M47.2428 40.9707H12.7566C12.6036 40.9707 12.4569 40.91 12.3487 40.8018C12.2405 40.6936 12.1797 40.5468 12.1797 40.3938C12.1797 40.2408 12.2405 40.0941 12.3487 39.9859C12.4569 39.8777 12.6036 39.8169 12.7566 39.8169H46.7074L48.2028 20.7692L37.3843 27.0415C37.2521 27.1186 37.0947 27.1401 36.9467 27.1011C36.7987 27.0622 36.6722 26.966 36.5951 26.8338C36.518 26.7016 36.4965 26.5442 36.5355 26.3962C36.5744 26.2482 36.6706 26.1217 36.8028 26.0446L48.5951 19.2092C48.6849 19.1551 48.7879 19.1265 48.8928 19.1265C48.9977 19.1265 49.1006 19.1551 49.1905 19.2092C49.2798 19.2643 49.3521 19.3431 49.3993 19.4367C49.4466 19.5304 49.4669 19.6354 49.4582 19.74L47.8428 40.4261C47.8344 40.5775 47.7668 40.7196 47.6545 40.8215C47.5422 40.9234 47.3943 40.977 47.2428 40.9707Z" fill="black"/>
<path d="M47.243 40.9706H12.7568C12.6115 40.971 12.4713 40.9166 12.3643 40.8182C12.2574 40.7198 12.1915 40.5847 12.1799 40.4398L10.5645 19.7536C10.5557 19.6491 10.5761 19.5441 10.6233 19.4504C10.6706 19.3567 10.7429 19.278 10.8322 19.2229C10.9221 19.1687 11.025 19.1401 11.1299 19.1401C11.2348 19.1401 11.3377 19.1687 11.4276 19.2229L33.9276 32.2475C34.0051 32.278 34.0751 32.325 34.1328 32.3851C34.1905 32.4453 34.2344 32.5172 34.2617 32.596C34.2889 32.6747 34.2987 32.7585 34.2904 32.8414C34.2822 32.9243 34.2561 33.0045 34.2139 33.0764C34.1717 33.1482 34.1145 33.2101 34.0461 33.2577C33.9777 33.3054 33.8998 33.3376 33.8178 33.3523C33.7358 33.3669 33.6515 33.3636 33.5709 33.3426C33.4902 33.3216 33.4151 33.2834 33.3507 33.2306L11.7968 20.769L13.2922 39.8167H47.243C47.396 39.8167 47.5427 39.8775 47.6509 39.9857C47.7591 40.0939 47.8199 40.2406 47.8199 40.3936C47.8199 40.5466 47.7591 40.6934 47.6509 40.8016C47.5427 40.9098 47.396 40.9706 47.243 40.9706Z" fill="black"/>
<path d="M36.9229 27.1199C36.8471 27.1205 36.772 27.1056 36.7022 27.0763C36.6324 27.0469 36.5693 27.0037 36.5167 26.9491L29.9998 20.4184L23.469 26.9491C23.4154 27.0029 23.3518 27.0455 23.2817 27.0746C23.2116 27.1037 23.1364 27.1186 23.0605 27.1186C22.9847 27.1186 22.9095 27.1037 22.8394 27.0746C22.7693 27.0455 22.7057 27.0029 22.6521 26.9491C22.5458 26.8397 22.4863 26.6932 22.4863 26.5407C22.4863 26.3881 22.5458 26.2416 22.6521 26.1322L29.5752 19.2091C29.6284 19.1556 29.6916 19.113 29.7613 19.084C29.831 19.055 29.9058 19.04 29.9813 19.04C30.0568 19.04 30.1316 19.055 30.2013 19.084C30.271 19.113 30.3343 19.1556 30.3875 19.2091L37.3105 26.1322C37.3643 26.1858 37.4069 26.2495 37.436 26.3196C37.4651 26.3897 37.48 26.4648 37.48 26.5407C37.48 26.6166 37.4651 26.6917 37.436 26.7618C37.4069 26.8319 37.3643 26.8956 37.3105 26.9491C37.2088 27.0548 37.0695 27.1161 36.9229 27.1199Z" fill="black"/>
</svg>
