<svg width="90" height="90" viewBox="0 0 90 90" fill="none" xmlns="http://www.w3.org/2000/svg">
<path d="M0 0H90V90H0V0Z" fill="white"/>
<path d="M45 81.5801C65.2026 81.5801 81.5801 65.2026 81.5801 45C81.5801 24.7974 65.2026 8.41992 45 8.41992C24.7974 8.41992 8.41992 24.7974 8.41992 45C8.41992 65.2026 24.7974 81.5801 45 81.5801Z" stroke="black" stroke-width="2" stroke-miterlimit="10"/>
<path d="M40.7813 43.5762C41.7656 43.084 42.5215 42.5215 43.0313 41.9238C43.9453 40.8516 44.3848 39.4277 44.3848 37.6523C44.3848 35.9297 43.9277 34.4531 43.0313 33.2227C41.5371 31.2188 38.9883 30.1816 35.4023 30.1289H21.1992V59.1504H34.4531C35.8418 59.168 37.2481 59.0273 38.6016 58.7637C39.7969 58.5352 40.9395 58.043 41.9238 57.3047C42.7676 56.6895 43.4707 55.916 44.0156 55.0195C44.8945 53.6309 45.3516 52.0313 45.334 50.3965C45.334 48.7266 44.9473 47.3203 44.1914 46.1426C43.418 44.9648 42.2754 44.1211 40.7813 43.5762ZM27.0703 35.1738H33.4688C34.875 35.1738 36.0352 35.332 36.9492 35.6309C38.0039 36.0703 38.5313 36.9668 38.5313 38.3203C38.5313 39.5332 38.127 40.3945 37.3359 40.8691C36.5449 41.3438 35.5078 41.5898 34.2246 41.5898H27.0703V35.1738ZM37.1953 53.5957C36.4922 53.9473 35.4902 54.1055 34.207 54.1055H27.0703V46.3711H34.3125C35.5781 46.3887 36.5625 46.5469 37.2656 46.8633C38.5137 47.4258 39.1289 48.4629 39.1289 49.9746C39.1289 51.75 38.4785 52.9629 37.1953 53.5957Z" stroke="black" stroke-width="2" stroke-miterlimit="10"/>
<path d="M64.2129 31.4824H51.6094V35.1035H64.2129V31.4824Z" stroke="black" stroke-width="2" stroke-miterlimit="10"/>
<path d="M68.6074 45.7387C68.3789 44.1391 67.7812 42.6274 66.8672 41.309C65.9355 39.9204 64.6348 38.8129 63.1055 38.1274C61.4883 37.4419 59.748 37.0903 57.9902 37.1254C54.8086 37.1254 52.207 38.1098 50.2207 40.0962C48.2168 42.0825 47.2324 44.9301 47.2324 48.6567C47.2324 52.6294 48.3398 55.477 50.5547 57.2524C52.7695 59.0102 55.3184 59.8891 58.2187 59.8891C61.7168 59.8891 64.459 58.852 66.4101 56.7602C67.6582 55.4419 68.3613 54.1587 68.5195 52.8754H62.7187C62.4375 53.4379 62.0332 53.9477 61.541 54.352C60.7324 55.0024 59.6777 55.3364 58.3945 55.3364C57.1641 55.3364 56.1269 55.0727 55.248 54.5278C53.8066 53.6665 53.0684 52.1547 52.9629 50.0102H68.8008C68.8183 48.1469 68.748 46.7231 68.6074 45.7387ZM53.0859 46.2837C53.2969 44.895 53.8066 43.7876 54.5977 42.9614C55.4062 42.1528 56.5312 41.7309 57.9902 41.7309C59.3262 41.7309 60.4512 42.1176 61.3652 42.8911C62.2793 43.6645 62.7715 44.7895 62.8769 46.2837H53.0859Z" stroke="black" stroke-width="2" stroke-miterlimit="10"/>
<path d="M45.0002 81.5785C65.2018 81.5785 81.5785 65.2018 81.5785 45.0002C81.5785 24.7985 65.2018 8.42188 45.0002 8.42188C24.7985 8.42188 8.42188 24.7985 8.42188 45.0002C8.42188 65.2018 24.7985 81.5785 45.0002 81.5785Z" fill="black" stroke="black" stroke-width="2" stroke-miterlimit="10"/>
<path d="M40.7816 43.5723C41.6306 43.174 42.3937 42.614 43.0281 41.9234C43.9387 40.8459 44.3869 39.4186 44.3869 37.6484C44.3869 35.9258 43.9387 34.4545 43.0404 33.2187C41.5416 31.2078 38.9998 30.1766 35.415 30.125H21.2031V59.1395H34.4535C35.8483 59.1494 37.2405 59.0187 38.609 58.7492C39.8118 58.5191 40.9473 58.021 41.9313 57.292C42.7667 56.672 43.474 55.8959 44.0143 55.0068C44.8929 53.6254 45.3487 52.0173 45.3256 50.3803C45.3256 48.7139 44.9441 47.2971 44.1813 46.1299C43.4184 44.9662 42.2828 44.1207 40.7816 43.5723ZM27.0707 35.1647H33.4691C34.8754 35.1647 36.0344 35.3152 36.9461 35.6164C38.0008 36.0541 38.5281 36.9436 38.5281 38.3006C38.5281 39.517 38.1256 40.3678 37.3311 40.8459C36.5365 41.324 35.4941 41.5666 34.2197 41.5666H27.0707V35.1647ZM37.1939 53.5936C36.4908 53.9363 35.4889 54.1051 34.2057 54.1051H27.0707V46.3707H34.3111C35.5732 46.3813 36.5541 46.5465 37.2555 46.8594C38.5053 47.4254 39.1275 48.4607 39.1275 49.9742C39.1275 51.7549 38.4807 52.9625 37.1939 53.5936Z" fill="white" stroke="black" stroke-width="2" stroke-miterlimit="10"/>
<path d="M64.2225 31.4785H51.6172V35.0908H64.2225V31.4785Z" fill="white" stroke="black" stroke-width="2" stroke-miterlimit="10"/>
<path d="M68.6012 45.7311C68.3737 44.1379 67.7785 42.6195 66.8627 41.2961C65.9397 39.9 64.6353 38.7982 63.1045 38.1215C61.489 37.4289 59.7451 37.0862 57.9875 37.1161C54.8012 37.1161 52.209 38.108 50.211 40.092C48.2129 42.076 47.2168 44.9278 47.2227 48.6473C47.2227 52.6129 48.3301 55.4758 50.5449 57.236C52.7137 58.9798 55.4229 59.9123 58.2055 59.8727C61.7118 59.8727 64.4399 58.8303 66.3899 56.7455C67.6356 55.4307 68.3387 54.1375 68.4993 52.8661H62.6985C62.4116 53.4325 62.0128 53.9349 61.526 54.3426C60.7174 54.9965 59.6645 55.3235 58.3742 55.3235C57.1438 55.3235 56.1032 55.0528 55.2348 54.5149C53.8004 53.6518 53.0516 52.1401 52.9496 49.9903H68.7963C68.8157 48.1375 68.7559 46.7137 68.6012 45.7311ZM53.085 46.2883C53.2924 44.8926 53.7981 43.7858 54.602 42.9678C55.4053 42.1522 56.5356 41.7373 57.9963 41.7373C59.3375 41.7373 60.4573 42.1205 61.3731 42.8922C62.2889 43.6639 62.7793 44.7959 62.8866 46.2866L53.085 46.2883Z" fill="white" stroke="black" stroke-width="2" stroke-miterlimit="10"/>
</svg>
