<svg width="90" height="90" viewBox="0 0 90 90" fill="none" xmlns="http://www.w3.org/2000/svg">
<path d="M0 0H90V90H0V0Z" fill="white"/>
<path d="M44.2346 80.394C64.4362 80.394 80.8129 64.0173 80.8129 43.8156C80.8129 23.614 64.4362 7.2373 44.2346 7.2373C24.0329 7.2373 7.65625 23.614 7.65625 43.8156C7.65625 64.0173 24.0329 80.394 44.2346 80.394Z" fill="black" stroke="black" stroke-width="2" stroke-miterlimit="10"/>
<path d="M37.9375 39.2434C39.8332 38.8617 41.7059 38.3734 43.5467 37.7809C41.2293 33.4795 38.2651 29.5596 34.7576 26.1582C29.66 28.8934 25.7928 33.773 24.543 39.5967C28.2871 40.3508 32.9154 40.2541 37.9375 39.2434Z" fill="white" stroke="black" stroke-width="2" stroke-miterlimit="10"/>
<path d="M57.008 28.4225L56.6793 29.718C56.1607 31.7939 51.775 34.7629 46.0234 36.9092L45.7633 37.0041C43.4567 32.6354 40.5176 28.6312 37.041 25.1213C39.3196 24.2022 41.7507 23.7198 44.2076 23.6992C48.5614 23.7268 52.7881 25.1692 56.2504 27.809C56.519 27.9928 56.7724 28.1979 57.008 28.4225Z" fill="white" stroke="black" stroke-width="2" stroke-miterlimit="10"/>
<path d="M46.6827 44.782C46.071 43.1086 45.3872 41.482 44.6313 39.9023C42.594 40.5831 40.5156 41.1343 38.4087 41.5529C35.5841 42.1299 32.7099 42.4296 29.827 42.4477C27.9274 42.4583 26.0308 42.2929 24.1616 41.9537C24.1142 42.5654 24.1704 43.1842 24.1704 43.8152C24.1694 46.7598 24.8174 49.6684 26.0682 52.3341C27.3191 54.9998 29.142 57.3571 31.4073 59.2383C31.4302 59.0977 31.4548 58.9553 31.4776 58.8146C32.3741 53.3865 38.6442 47.6578 46.6827 44.782Z" fill="white" stroke="black" stroke-width="2" stroke-miterlimit="10"/>
<path d="M47.4603 46.999C49.0935 52.1999 49.9668 57.6095 50.0531 63.0602C47.3563 63.8906 44.5125 64.132 41.7142 63.7681C38.916 63.4042 36.2285 62.4434 33.8338 60.9508C33.7199 60.3675 33.7121 59.7684 33.8109 59.1824C34.5422 54.7316 40.3869 49.5707 47.4603 46.999Z" fill="white" stroke="black" stroke-width="2" stroke-miterlimit="10"/>
<path d="M64.1109 46.6686C63.1213 53.5768 58.5404 59.3513 52.3635 62.1093C52.1969 56.7376 51.2925 51.4143 49.6758 46.289C54.958 44.8247 59.9625 45.0005 64.1109 46.6686Z" fill="white" stroke="black" stroke-width="2" stroke-miterlimit="10"/>
<path d="M64.3238 43.8148V44.2402C59.8221 42.5668 54.4801 42.4947 48.9219 44.075C48.3102 42.377 47.6018 40.7352 46.8477 39.125C50.7148 37.6695 57.9535 34.3209 58.9643 30.2832C62.3871 33.9604 64.3005 38.7912 64.3238 43.8148Z" fill="white" stroke="black" stroke-width="2" stroke-miterlimit="10"/>
<path d="M37.9336 39.2344C39.832 38.8477 41.6953 38.3555 43.541 37.7754C41.2207 33.4687 38.2676 29.5488 34.752 26.1562C29.6543 28.8984 25.7871 33.7676 24.5391 39.5859C28.2832 40.3594 32.9062 40.2539 37.9336 39.2344Z" stroke="black" stroke-width="2" stroke-miterlimit="10"/>
<path d="M57.0059 28.4238L56.6719 29.7246C56.1445 31.7988 51.7676 34.7695 46.0195 36.9141L45.7559 37.002C43.4531 32.625 40.5176 28.6348 37.0371 25.1191C39.3223 24.2051 41.748 23.7129 44.209 23.6953C48.5684 23.7305 52.7871 25.1719 56.25 27.8086C56.5137 27.9844 56.7773 28.1953 57.0059 28.4238Z" stroke="black" stroke-width="2" stroke-miterlimit="10"/>
<path d="M46.6876 44.7891C46.0723 43.1191 45.3868 41.4844 44.6309 39.9023C42.5919 40.5879 40.5177 41.1328 38.4083 41.5547C35.5782 42.1348 32.713 42.4336 29.8302 42.4512C27.9317 42.4688 26.0333 42.293 24.17 41.959C24.1173 42.5742 24.1876 43.1895 24.1876 43.8223C24.1876 49.7813 26.8419 55.4414 31.4298 59.2383C31.4473 59.0977 31.4825 58.957 31.5001 58.8164C32.379 53.3848 38.6368 47.6543 46.6876 44.7891Z" stroke="black" stroke-width="2" stroke-miterlimit="10"/>
<path d="M47.4618 47.0039C49.0966 52.207 49.9755 57.6211 50.0634 63.0703C44.6141 64.7578 38.6903 63.9844 33.8388 60.9609C33.7157 60.3809 33.7157 59.7832 33.8212 59.1855C34.5419 54.7383 40.3954 49.5703 47.4618 47.0039Z" stroke="black" stroke-width="2" stroke-miterlimit="10"/>
<path d="M64.1074 46.6701C63.123 53.5783 58.5352 59.3439 52.3652 62.1037C52.207 56.7248 51.293 51.4162 49.6758 46.2834C54.9492 44.8244 59.959 45.0002 64.1074 46.6701Z" stroke="black" stroke-width="2" stroke-miterlimit="10"/>
<path d="M64.3184 43.8223V44.2441C59.8184 42.5742 54.4746 42.5039 48.9199 44.0859C48.3047 42.3809 47.6016 40.7461 46.8457 39.1289C50.7129 37.6699 57.9551 34.3301 58.957 30.2871C62.3848 33.9609 64.3008 38.7949 64.3184 43.8223Z" stroke="black" stroke-width="2" stroke-miterlimit="10"/>
<path d="M44.2266 80.4023C64.4292 80.4023 80.8066 64.0249 80.8066 43.8223C80.8066 23.6196 64.4292 7.24219 44.2266 7.24219C24.0239 7.24219 7.64648 23.6196 7.64648 43.8223C7.64648 64.0249 24.0239 80.4023 44.2266 80.4023Z" stroke="black" stroke-width="2" stroke-miterlimit="10"/>
</svg>
