<svg width="90" height="90" viewBox="0 0 90 90" fill="none" xmlns="http://www.w3.org/2000/svg">
<path d="M0 0H90V90H0V0Z" fill="white"/>
<path d="M47.6543 82.9512C67.8569 82.9512 84.2344 66.5737 84.2344 46.3711C84.2344 26.1685 67.8569 9.79102 47.6543 9.79102C27.4517 9.79102 11.0742 26.1685 11.0742 46.3711C11.0742 66.5737 27.4517 82.9512 47.6543 82.9512Z" stroke="black" stroke-width="2" stroke-miterlimit="10"/>
<path d="M61.2598 29.6014C55.9512 29.4081 52.3476 32.4491 50.4492 38.7069C51.3457 38.3026 52.3125 38.0741 53.2793 38.0741C55.2305 38.0741 56.0918 39.1815 55.8633 41.3964C55.7402 42.7323 54.8789 44.6835 53.2969 47.2499C51.6973 49.8163 50.4844 51.0995 49.6758 51.0995C47.25 51.0995 45.791 39.4628 45.2812 36.2811C44.5957 31.869 42.75 29.7948 39.7793 30.0936C37.0371 30.3573 32.2559 35.2792 28.5117 38.619L30.3223 40.9745C32.0449 39.7616 33.0469 39.1464 33.3281 39.1464C36.3164 39.1464 37.7578 49.3241 40.0781 56.8827C41.6426 61.0663 43.5059 63.1405 45.7559 63.1405C49.3769 63.1405 53.7891 59.7128 59.0098 52.8573C64.0547 46.3007 66.6562 41.1327 66.832 37.3534L66.8496 37.3358C67.0605 32.2909 65.2148 29.6893 61.2598 29.6014Z" stroke="black" stroke-width="2" stroke-miterlimit="10"/>
<path d="M47.6603 82.9457C67.862 82.9457 84.2387 66.569 84.2387 46.3674C84.2387 26.1657 67.862 9.78906 47.6603 9.78906C27.4587 9.78906 11.082 26.1657 11.082 46.3674C11.082 66.569 27.4587 82.9457 47.6603 82.9457Z" fill="black" stroke="black" stroke-width="2" stroke-miterlimit="10"/>
<path d="M61.267 29.6014C55.9496 29.4081 52.3584 32.4561 50.4635 38.6981C51.354 38.288 52.3219 38.0729 53.3023 38.0671C55.25 38.0671 56.1148 39.1797 55.8811 41.3928C55.7639 42.7346 54.9055 44.6864 53.3059 47.2481C51.7062 49.8098 50.4998 51.0924 49.6865 51.096C47.2555 51.096 45.793 39.4592 45.292 36.2811C44.6029 31.8643 42.7672 29.7995 39.7848 30.0866C37.0461 30.3467 32.2684 35.2774 28.5137 38.619L30.3172 40.971C32.0352 39.7546 33.0371 39.1458 33.323 39.1446C36.3113 39.1446 37.7598 49.3171 40.0801 56.8809C41.6375 61.0557 43.5061 63.144 45.7578 63.144C49.373 63.144 53.7881 59.7174 59.0029 52.8643C64.042 46.3018 66.6482 41.1333 66.8217 37.3587L66.8428 37.3428C67.0555 32.2874 65.2115 29.6981 61.2617 29.6085L61.267 29.6014Z" fill="white" stroke="black" stroke-width="2" stroke-miterlimit="10"/>
</svg>
